<?xml version="1.0" standalone="no"?>
<!DOCTYPE svg PUBLIC "-//W3C//DTD SVG 20010904//EN"
 "http://www.w3.org/TR/2001/REC-SVG-20010904/DTD/svg10.dtd">
<svg version="1.0" xmlns="http://www.w3.org/2000/svg"
 width="575.000000pt" height="575.000000pt" viewBox="0 0 575.000000 575.000000"
 preserveAspectRatio="xMidYMid meet">
<metadata>
Created by potrace 1.11, written by Peter Selinger 2001-2013
</metadata>
<g transform="translate(0.000000,575.000000) scale(0.100000,-0.100000)"
fill="#000000" stroke="none">
<path d="M5094 5173 c6 -12 -18 -19 -46 -14 -5 0 -8 -3 -8 -9 0 -5 -7 -7 -15
-4 -8 4 -15 2 -15 -2 0 -9 -20 -12 -87 -15 -18 -1 -33 -5 -33 -9 0 -5 -8 -7
-17 -5 -10 1 -26 -2 -35 -7 -13 -6 -18 -5 -18 4 0 10 -2 10 -8 1 -4 -6 -20
-14 -35 -17 -15 -2 -35 -7 -45 -10 -9 -3 -33 -7 -52 -10 -19 -2 -53 -9 -75
-15 -38 -10 -102 -22 -135 -25 -9 -1 -21 -5 -28 -10 -6 -4 -12 -5 -12 -3 0 3
-17 1 -37 -4 -21 -6 -51 -12 -68 -15 -16 -3 -43 -9 -59 -14 -15 -6 -32 -7 -37
-4 -5 3 -9 1 -9 -4 0 -5 -6 -9 -12 -10 -48 -3 -87 -10 -97 -16 -7 -5 -15 -5
-18 -2 -3 3 -11 1 -18 -4 -6 -5 -22 -12 -36 -14 -13 -3 -24 -5 -24 -7 0 -1 -9
-3 -20 -5 -33 -5 -49 -9 -60 -15 -5 -3 -17 -5 -25 -4 -8 0 -17 -2 -20 -6 -3
-4 -21 -10 -40 -12 -19 -3 -36 -6 -37 -7 -2 -2 -7 -4 -13 -5 -5 -1 -13 -4 -17
-5 -5 -1 -12 -3 -18 -5 -5 -1 -13 -3 -17 -5 -5 -1 -12 -4 -18 -5 -5 -1 -11 -3
-12 -5 -2 -1 -10 -3 -18 -5 -8 -2 -26 -7 -40 -10 -27 -7 -69 -16 -85 -19 -5
-1 -14 -4 -20 -7 -5 -4 -18 -5 -27 -4 -10 2 -18 -1 -18 -5 0 -5 -9 -7 -20 -5
-11 2 -22 -1 -25 -6 -4 -5 -11 -7 -16 -4 -5 4 -9 1 -9 -5 0 -6 -5 -8 -10 -5
-6 4 -7 12 -4 18 4 7 -4 3 -17 -9 -21 -18 -94 -43 -139 -48 -9 -1 -20 -5 -25
-8 -6 -3 -22 -5 -37 -4 -14 1 -24 -3 -21 -8 4 -5 -1 -7 -12 -3 -9 4 -24 2 -31
-4 -7 -6 -19 -7 -25 -3 -8 4 -9 3 -5 -5 5 -8 0 -10 -18 -7 -15 3 -26 0 -26 -6
0 -6 -11 -8 -25 -6 -13 3 -22 1 -19 -4 3 -5 -2 -8 -12 -6 -11 2 -18 -2 -17 -8
1 -6 -10 -9 -29 -6 -24 4 -29 2 -23 -8 6 -10 4 -12 -9 -7 -10 4 -23 4 -29 0
-12 -8 -26 -11 -65 -17 -12 -1 -25 -5 -28 -9 -3 -3 -12 -3 -20 0 -8 3 -14 0
-14 -5 0 -6 -9 -9 -20 -7 -11 2 -20 -1 -20 -6 0 -6 -5 -7 -10 -4 -6 4 -16 2
-23 -3 -7 -5 -25 -13 -42 -17 -16 -5 -34 -9 -40 -11 -29 -8 -62 -16 -80 -19
-11 -2 -21 -4 -22 -5 -2 -2 -7 -4 -13 -5 -5 -1 -11 -4 -12 -5 -2 -1 -12 -4
-23 -6 -26 -4 -47 -10 -65 -17 -8 -4 -25 -8 -37 -10 -12 -2 -26 -6 -29 -10
-12 -11 -49 -8 -64 6 -12 10 -12 9 -2 -4 10 -14 10 -18 -3 -23 -11 -4 -14 -2
-9 7 4 6 -1 4 -12 -5 -19 -17 -21 -17 -38 0 -11 9 -16 12 -13 7 3 -6 2 -17 -4
-25 -6 -11 -9 -12 -9 -2 0 7 -5 10 -10 7 -6 -4 -7 -11 -4 -17 4 -6 -1 -6 -14
1 -16 8 -21 7 -26 -5 -4 -11 -15 -15 -36 -12 -16 2 -27 1 -24 -4 5 -8 -5 -11
-38 -11 -9 0 -17 -2 -16 -6 2 -20 -4 -22 -17 -5 -11 14 -14 15 -9 3 3 -10 0
-20 -7 -25 -8 -4 -10 -3 -5 4 11 18 -5 14 -27 -5 -15 -13 -21 -15 -24 -5 -7
17 -23 15 -23 -4 0 -8 -5 -12 -11 -8 -6 3 -15 0 -20 -7 -7 -11 -9 -11 -9 -1 0
10 -4 9 -16 -2 -8 -9 -20 -14 -25 -11 -5 4 -9 2 -9 -3 0 -5 -9 -12 -20 -15
-13 -3 -18 -1 -13 6 3 7 -3 4 -14 -6 -11 -9 -23 -14 -26 -10 -4 3 -7 1 -7 -6
0 -7 -4 -10 -9 -6 -5 3 -13 1 -16 -5 -4 -6 -15 -8 -25 -5 -11 3 -20 -1 -24
-11 -5 -13 -9 -14 -21 -4 -12 10 -15 9 -15 -4 0 -9 -5 -16 -11 -16 -5 0 -7 6
-4 13 4 6 0 4 -8 -5 -8 -10 -19 -18 -26 -18 -6 0 -11 -6 -11 -12 0 -9 -4 -8
-10 2 -6 10 -10 11 -10 3 0 -7 -9 -13 -20 -13 -11 0 -20 -4 -20 -9 0 -5 -11
-11 -25 -13 -13 -3 -22 -1 -19 4 4 5 -3 4 -14 -3 -12 -7 -19 -16 -16 -20 2 -4
-5 -5 -16 -2 -12 3 -20 0 -20 -8 0 -8 -6 -5 -15 7 -11 14 -14 15 -9 3 3 -10 0
-20 -7 -25 -8 -5 -10 -3 -5 7 4 8 2 7 -6 -2 -12 -15 -61 -36 -64 -28 -1 2 -11
-4 -21 -14 -11 -9 -22 -14 -26 -11 -4 4 -17 0 -31 -9 -13 -9 -34 -18 -47 -19
-13 -2 -34 -9 -47 -16 -12 -7 -22 -10 -22 -6 0 3 -6 1 -14 -5 -11 -9 -15 -9
-19 1 -4 8 -6 7 -6 -4 -1 -10 -4 -17 -9 -17 -4 1 -9 0 -12 -1 -24 -9 -60 -9
-60 1 0 7 -3 9 -6 6 -4 -4 -1 -13 6 -22 11 -13 10 -14 -5 -9 -13 5 -16 4 -11
-4 5 -9 0 -9 -20 -2 -25 10 -26 9 -13 -7 8 -9 9 -14 2 -10 -6 4 -14 3 -17 -2
-4 -5 -17 -8 -31 -6 -22 2 -23 0 -13 -13 12 -13 10 -14 -11 -3 -17 10 -22 10
-16 1 5 -9 1 -10 -16 -6 -13 3 -18 3 -11 0 6 -3 12 -10 12 -15 0 -6 -5 -7 -10
-4 -6 3 -10 1 -10 -4 0 -6 -9 -11 -20 -11 -11 0 -20 -4 -20 -9 0 -5 -20 -15
-45 -22 -25 -7 -45 -18 -45 -23 0 -5 -7 -1 -15 10 -14 18 -14 18 -9 -3 5 -16
2 -21 -13 -20 -10 1 -17 -4 -15 -11 1 -8 -2 -11 -8 -7 -6 4 -9 14 -5 22 4 13
3 14 -9 4 -8 -7 -12 -20 -9 -29 4 -15 3 -15 -6 -2 -9 13 -15 9 -13 -10 0 -3
-8 -6 -18 -6 -10 0 -17 4 -14 7 2 4 0 10 -5 14 -6 3 -8 -6 -5 -21 3 -14 1 -24
-3 -21 -4 2 -17 -5 -27 -16 -17 -18 -17 -20 -2 -14 12 5 16 3 14 -5 -3 -7 -11
-13 -19 -13 -9 0 -13 -10 -11 -29 2 -15 -1 -25 -6 -22 -5 3 -9 -1 -9 -9 0 -8
4 -12 9 -9 4 3 8 0 8 -5 0 -6 -5 -11 -11 -11 -6 0 -3 -7 5 -16 22 -21 20 -27
-4 -14 -24 13 -26 7 -4 -14 9 -9 11 -16 4 -16 -6 0 -8 -5 -3 -12 10 -17 11
-78 1 -72 -10 6 -11 -10 -1 -20 15 -15 11 -38 -5 -32 -14 5 -14 4 1 -8 14 -10
15 -15 5 -19 -10 -4 -10 -8 2 -16 13 -10 13 -11 0 -11 -13 0 -13 -1 0 -10 13
-9 13 -10 0 -10 -9 0 -11 -3 -5 -8 12 -8 13 -41 2 -58 -4 -7 0 -14 8 -18 18
-7 9 -33 -13 -39 -16 -4 -16 -5 -1 -6 24 -1 31 -28 13 -46 -9 -8 -11 -15 -5
-15 6 0 11 -7 11 -16 0 -8 -4 -13 -8 -10 -5 3 -9 -2 -9 -10 0 -8 6 -13 14 -10
11 4 11 1 3 -14 -8 -15 -8 -20 1 -18 6 2 13 -5 14 -14 2 -10 0 -17 -3 -17 -29
4 -34 -3 -12 -16 14 -8 19 -14 12 -15 -10 0 -13 -12 -10 -45 5 -42 4 -44 -16
-33 -19 10 -18 8 4 -18 14 -16 18 -23 9 -16 -16 12 -29 7 -29 -10 0 -5 4 -7 9
-3 5 3 13 0 17 -6 5 -8 3 -9 -6 -4 -10 6 -12 4 -7 -8 5 -14 3 -15 -13 -5 -10
7 -23 8 -27 4 -4 -5 -2 -11 5 -13 6 -3 12 -9 12 -14 0 -6 -4 -8 -8 -5 -5 3
-16 -8 -26 -25 -10 -18 -22 -27 -29 -22 -9 5 -9 3 0 -8 14 -17 14 -28 1 -53
-8 -14 -7 -17 3 -11 9 6 11 3 6 -9 -4 -10 -3 -15 4 -11 5 4 7 16 3 27 -4 15
-3 18 6 13 9 -5 11 -4 6 3 -4 7 -2 12 4 12 7 0 9 -8 5 -21 -5 -14 -3 -19 3
-15 6 3 17 3 26 0 12 -4 13 -11 6 -24 -7 -13 -6 -20 6 -24 23 -9 31 -7 14 4
-13 8 -13 11 -1 22 9 8 11 9 7 1 -3 -6 -2 -14 4 -18 6 -4 8 -10 5 -15 -3 -4 1
-13 9 -19 14 -12 11 -46 -7 -68 -6 -9 -4 -15 8 -19 10 -4 21 -1 26 7 6 10 8 7
5 -11 -2 -16 -10 -24 -20 -24 -9 1 -13 -2 -10 -8 3 -5 14 -6 25 -3 17 6 18 3
10 -18 -5 -13 -5 -30 -1 -38 6 -9 3 -21 -8 -34 -16 -19 -16 -19 0 -6 21 15 24
2 5 -18 -9 -11 -9 -13 1 -7 6 4 12 3 12 -3 0 -5 -6 -12 -12 -14 -10 -4 -10 -6
0 -6 6 -1 12 -6 12 -12 0 -5 -4 -8 -8 -5 -5 3 -9 -1 -9 -9 0 -18 9 -19 27 -2
12 10 12 9 2 -5 -10 -13 -10 -17 0 -22 7 -3 3 -4 -10 -2 -20 4 -22 2 -10 -12
21 -27 32 -32 41 -19 6 8 7 8 4 -3 -2 -8 -13 -14 -23 -13 -16 2 -15 1 4 -9 12
-6 22 -15 22 -20 0 -5 -10 -4 -22 2 -22 11 -23 11 -3 -5 11 -9 20 -19 20 -23
1 -4 6 -16 12 -28 9 -16 9 -24 0 -33 -9 -10 -9 -12 3 -9 8 2 14 -3 12 -11 -2
-9 3 -11 13 -7 13 5 15 1 10 -17 -6 -21 -5 -21 9 -4 13 17 14 15 11 -17 -3
-33 -2 -35 16 -26 18 10 25 3 20 -23 -1 -5 9 -6 21 -2 22 6 22 5 -2 -10 l-25
-16 25 5 c24 5 24 4 6 -9 -19 -15 -19 -15 4 -15 13 0 20 -3 17 -7 -4 -3 0 -17
8 -30 9 -13 11 -23 5 -23 -5 0 -10 -4 -10 -9 0 -4 8 -8 18 -7 9 0 17 -1 18 -4
0 -3 7 -16 14 -30 12 -22 11 -24 -2 -13 -12 10 -15 10 -15 0 0 -7 9 -14 19
-14 10 -1 18 2 18 8 0 5 5 9 12 9 9 0 9 -3 0 -12 -25 -25 0 -71 29 -53 5 4 6
-1 3 -9 -5 -12 -11 -13 -27 -5 -21 10 -21 10 -3 -5 11 -9 25 -16 30 -16 6 0 4
-5 -4 -10 -11 -7 -12 -10 -2 -10 7 0 20 -6 27 -14 12 -12 12 -15 -3 -21 -15
-6 -15 -8 5 -23 11 -9 24 -27 28 -40 6 -20 9 -21 23 -10 14 10 13 8 -1 -9 -14
-16 -15 -22 -5 -26 11 -3 11 -8 0 -26 -7 -11 -9 -21 -5 -20 21 3 24 -3 12 -18
-11 -15 -9 -14 9 1 12 11 25 16 29 13 3 -4 1 -7 -5 -7 -7 0 -12 -7 -12 -15 0
-8 5 -15 11 -15 5 0 7 5 4 11 -4 6 2 5 14 -2 11 -8 17 -16 12 -19 -4 -3 -6
-14 -4 -25 2 -11 5 -26 5 -32 1 -14 13 -7 13 8 0 5 3 9 8 9 4 0 9 0 12 0 3 0
1 -8 -4 -18 -11 -20 7 -51 26 -45 11 4 29 -33 25 -50 -1 -4 7 -3 19 3 14 8 24
9 31 2 7 -7 4 -10 -7 -9 -10 1 -20 -5 -22 -13 -4 -12 -3 -12 5 -1 7 9 12 10
16 2 4 -6 11 -9 16 -6 5 3 11 1 15 -4 3 -6 -3 -8 -15 -6 -11 2 -20 0 -20 -6 0
-5 9 -9 21 -9 14 0 19 -5 16 -15 -4 -8 -1 -17 5 -21 7 -4 8 -3 4 4 -4 7 -1 12
8 12 9 0 13 -6 10 -14 -3 -8 0 -17 5 -21 6 -3 8 -12 4 -18 -4 -7 0 -6 10 2 18
15 23 3 7 -17 -7 -9 -7 -9 2 -2 18 15 32 12 19 -3 -11 -14 -5 -27 13 -27 6 0
5 4 -2 9 -11 6 -10 10 4 15 10 4 15 4 11 0 -4 -4 -2 -13 4 -21 9 -10 8 -13 -2
-13 -12 0 -12 -2 0 -9 8 -5 21 -7 29 -3 11 4 14 1 9 -10 -3 -9 1 -24 8 -35 8
-10 15 -13 15 -8 0 6 10 11 23 12 12 0 16 -1 10 -4 -7 -3 -13 -9 -13 -14 0 -6
4 -7 10 -4 5 3 10 -1 10 -10 0 -9 -5 -13 -10 -10 -6 3 -10 1 -10 -5 0 -6 11
-8 25 -6 26 5 43 -8 25 -19 -13 -8 -13 -25 1 -25 5 0 7 5 4 10 -3 6 0 10 9 10
8 0 13 -7 11 -17 -3 -24 13 -43 37 -43 10 0 16 -4 13 -10 -3 -5 -1 -10 5 -10
6 0 9 -4 6 -8 -2 -4 0 -14 6 -22 8 -12 9 -12 4 2 -3 12 -1 15 10 11 8 -3 13
-12 9 -20 -3 -11 -1 -13 10 -9 13 5 19 -4 17 -25 -1 -3 5 -6 13 -6 8 0 12 4 9
9 -3 4 -1 8 3 8 5 0 14 -9 20 -20 11 -16 10 -21 -5 -30 -17 -11 -14 -11 33 5
19 6 19 6 2 -5 -18 -11 -18 -13 4 -33 26 -25 46 -30 56 -15 4 7 1 8 -8 3 -8
-5 -10 -4 -6 0 4 5 14 10 22 11 10 2 12 -3 5 -21 -10 -27 12 -56 26 -34 4 7 3
9 -4 5 -6 -3 -14 -1 -17 5 -5 6 0 9 11 8 11 -2 26 0 34 5 12 7 13 6 3 -5 -18
-18 -16 -30 4 -22 9 4 14 2 10 -3 -3 -5 8 -16 24 -23 16 -7 29 -18 29 -24 0
-8 -4 -7 -12 1 -7 7 -16 12 -21 12 -4 0 3 -11 17 -23 14 -13 22 -28 18 -33 -4
-4 0 -3 8 3 19 14 59 13 57 -2 -1 -5 7 -9 18 -7 16 2 17 1 5 -7 -10 -7 -19 -6
-31 5 -11 10 -19 12 -24 5 -6 -11 -5 -12 18 -15 6 -1 11 -7 10 -14 -3 -13 10
-16 21 -5 10 11 37 12 31 2 -8 -12 43 -62 55 -54 5 3 7 -4 5 -16 -3 -17 -1
-19 10 -9 10 8 17 6 29 -11 8 -12 13 -26 10 -31 -8 -12 10 -10 23 3 8 8 13 7
18 -2 6 -8 4 -10 -6 -4 -11 6 -12 5 -1 -6 17 -19 15 -29 -5 -23 -15 5 -16 4
-3 -5 11 -8 18 -7 25 3 9 12 14 12 30 0 29 -22 40 -16 14 7 l-24 20 27 -17
c15 -9 25 -21 22 -26 -4 -6 3 -8 17 -4 13 3 18 3 12 0 -7 -3 -13 -10 -13 -15
0 -6 5 -7 10 -4 10 6 14 -6 11 -35 -1 -11 1 -11 9 3 6 9 16 17 22 17 6 0 5 -7
-3 -17 -12 -15 -12 -16 4 -10 13 5 17 3 14 -5 -2 -7 -10 -12 -16 -10 -7 1 -9
-2 -6 -8 5 -8 13 -5 26 6 19 17 20 17 13 -2 -7 -16 -6 -17 8 -6 14 11 16 11
12 -5 -4 -13 5 -24 27 -37 28 -17 32 -17 26 -3 -4 10 -2 17 2 17 15 0 20 -27
8 -41 -7 -7 -2 -5 11 5 24 21 28 16 12 -14 -8 -16 -8 -18 5 -14 8 3 13 9 11
13 -2 3 2 12 10 18 11 11 12 8 9 -17 -4 -30 9 -41 18 -17 4 9 8 9 15 -2 6 -8
12 -9 16 -3 3 6 15 10 26 9 15 -1 18 -6 14 -22 -6 -17 -4 -17 15 5 12 14 21
21 20 15 -5 -37 10 -45 35 -19 9 8 16 11 16 5 0 -5 -4 -13 -10 -16 -13 -8 -13
-25 1 -25 5 0 8 4 5 9 -3 5 1 12 10 15 8 3 13 2 10 -2 -2 -4 0 -14 6 -22 8
-12 9 -12 4 3 -3 9 -1 17 5 17 6 0 7 5 3 12 -5 7 -3 8 6 3 10 -6 12 -4 6 11
-6 15 -5 17 5 6 10 -9 10 -15 1 -24 -21 -21 -13 -32 10 -12 12 10 18 14 15 8
-4 -7 2 -14 13 -17 11 -3 18 -1 15 3 -3 5 -1 11 5 15 5 3 10 15 10 27 0 18 2
19 17 7 16 -13 17 -12 4 3 -7 10 -20 18 -28 18 -8 0 -11 5 -8 10 4 6 10 8 15
5 5 -3 11 -1 15 4 3 6 -3 8 -15 6 -12 -2 -20 1 -20 10 0 9 6 12 18 8 18 -7 17
-5 -12 17 -13 10 -17 10 -12 3 4 -7 5 -13 2 -13 -8 0 -41 64 -38 74 2 4 -3 14
-9 22 -7 9 -7 14 -1 14 5 0 13 -7 16 -16 3 -8 10 -13 15 -10 5 4 12 1 14 -4 3
-6 4 -5 3 2 -2 7 -9 12 -15 11 -6 -2 -11 2 -11 7 0 6 6 10 13 10 8 0 7 4 -3
10 -13 9 -8 14 12 11 8 -1 5 20 -6 38 -7 10 -4 12 13 6 15 -4 21 -3 19 7 -2 7
4 12 12 10 8 -2 12 0 7 4 -4 4 3 19 15 33 13 14 15 19 6 12 -23 -17 -22 -5 2
39 20 37 28 34 9 -3 -10 -22 -10 -22 10 1 11 12 18 32 16 43 -2 11 0 17 6 14
5 -4 9 -1 9 6 0 7 3 9 6 6 4 -4 1 -13 -5 -21 -9 -11 -9 -16 0 -22 8 -4 9 -3 5
4 -4 7 -2 12 5 12 7 0 9 10 6 26 -3 19 -1 24 10 19 11 -3 13 -1 9 10 -3 8 -1
15 4 15 6 0 10 -5 10 -12 0 -6 6 -3 14 7 8 11 12 23 9 27 -2 5 2 11 10 13 8 4
13 19 12 40 -1 19 1 34 4 33 17 -2 31 3 30 10 -3 19 2 25 11 12 8 -12 10 -8
11 15 1 17 1 36 0 43 -1 6 6 12 16 12 15 0 16 -2 3 -10 -12 -8 -12 -10 -1 -10
11 0 11 -3 0 -18 -13 -15 -12 -16 4 -3 9 8 15 16 12 19 -3 3 2 17 12 31 12 19
12 23 2 14 -10 -8 -19 -9 -29 -2 -12 8 -11 9 5 7 12 -2 19 2 17 10 -2 10 2 10
16 3 15 -8 19 -6 19 7 0 9 -5 24 -11 32 -10 13 -9 13 7 1 9 -8 21 -11 24 -7 4
4 1 11 -7 16 -10 7 -11 10 -2 10 14 0 52 36 46 44 -2 3 -1 4 3 1 13 -10 11
-34 -2 -29 -15 6 -29 -26 -16 -39 6 -6 9 -2 8 9 -1 10 5 19 13 19 8 0 16 6 16
13 3 29 4 32 12 30 4 -2 18 6 32 16 14 10 18 16 9 13 -9 -3 -16 1 -16 9 0 7 4
11 8 9 4 -3 15 -2 24 1 14 6 14 8 0 24 -13 14 -13 17 0 17 8 0 12 -4 9 -9 -11
-17 24 -7 41 12 15 16 21 18 34 8 9 -7 7 -1 -5 12 -20 24 -20 25 -2 43 19 18
26 9 7 -10 -8 -8 -7 -13 2 -18 7 -5 10 -4 5 3 -3 6 3 13 14 17 11 3 20 11 20
16 0 6 -4 7 -10 4 -6 -3 -7 1 -4 10 6 14 8 14 26 -2 11 -9 18 -13 16 -8 -4 13
27 57 35 49 8 -8 3 18 -6 34 -10 16 5 16 22 -1 11 -10 11 -8 2 10 -10 20 -9
22 6 16 15 -5 16 -3 6 8 -7 7 -13 17 -13 23 0 5 9 -1 19 -13 19 -22 20 -22 18
-3 0 12 -6 18 -12 15 -5 -4 -7 -3 -3 2 4 4 2 17 -4 29 -10 20 -9 20 11 -2 21
-21 48 -22 35 -1 -3 5 -10 7 -15 4 -5 -4 -9 -1 -9 4 0 6 9 11 20 11 11 0 20 4
20 10 0 5 -8 7 -17 4 -14 -5 -15 -4 -4 4 8 6 20 8 28 5 8 -3 11 0 8 9 -3 8 2
21 12 28 14 11 15 11 6 1 -13 -15 -7 -41 9 -41 6 0 5 6 -2 15 -10 12 -9 16 3
21 9 3 13 13 10 25 -3 11 0 19 6 19 7 0 9 -4 6 -10 -9 -15 4 -12 22 5 8 8 20
12 26 8 7 -3 4 2 -5 13 -16 19 -16 20 2 21 11 1 20 -3 20 -9 0 -6 3 -8 6 -5 4
4 1 14 -6 22 -7 9 -9 15 -4 14 23 -4 42 2 48 17 4 10 2 13 -7 7 -18 -11 -38
-13 -31 -2 3 5 9 7 14 4 4 -3 15 6 24 20 11 17 22 22 34 18 9 -3 14 -3 10 2
-9 9 9 35 24 35 6 0 4 -8 -3 -17 -11 -16 -11 -16 1 -5 8 7 15 24 15 37 0 14 3
25 8 25 33 0 37 -1 32 -10 -4 -6 1 -7 11 -3 11 4 13 8 6 11 -15 5 -16 32 -1
32 5 0 7 -6 3 -12 -6 -10 -5 -10 8 -1 8 7 19 9 24 5 4 -4 2 1 -5 11 -15 19
-26 23 -15 5 4 -7 3 -8 -5 -4 -9 6 -9 11 -1 21 13 16 43 8 33 -8 -4 -6 -1 -7
6 -3 7 5 10 10 7 13 -3 3 -1 14 5 25 10 19 11 19 25 1 13 -15 12 -13 0 13 -15
31 -15 32 4 27 11 -3 17 -10 13 -16 -3 -6 -1 -7 5 -3 6 3 9 16 7 28 -4 17 -2
19 7 10 7 -7 16 -12 22 -12 5 0 -1 8 -13 19 -18 16 -19 20 -6 25 9 3 14 2 11
-3 -6 -10 24 -25 32 -16 3 3 0 5 -5 5 -9 0 -11 20 -3 40 1 3 2 8 1 13 0 4 4 7
10 7 6 0 8 -9 4 -21 -6 -19 -5 -20 8 -8 8 8 12 18 9 23 -3 5 2 7 11 3 10 -4
16 -2 14 6 -1 7 4 11 11 9 8 -1 11 2 7 8 -3 6 -12 7 -18 3 -18 -11 -38 -12
-31 -2 3 5 10 7 15 4 5 -4 9 -1 9 6 0 6 8 9 19 6 15 -4 18 0 16 20 -1 14 2 22
9 20 6 -2 10 -13 8 -23 -2 -15 -1 -16 7 -4 5 8 7 18 4 24 -4 5 1 7 10 3 11 -4
14 -2 10 8 -3 8 -9 12 -14 9 -5 -3 -6 2 -3 11 5 13 9 13 18 3 6 -7 10 -12 9
-10 -3 7 38 42 50 42 8 0 9 3 1 8 -6 4 -11 15 -11 26 0 18 1 18 14 1 7 -10 16
-16 19 -12 4 3 -1 13 -10 22 -22 22 -20 28 3 15 28 -14 38 -12 16 3 -13 10
-15 16 -6 21 6 4 8 12 5 18 -5 7 -2 8 6 3 10 -6 12 -4 7 9 -4 10 -3 15 3 11 6
-3 10 -1 10 4 0 6 8 11 17 11 15 0 15 -2 2 -13 -8 -6 -22 -21 -32 -33 -14 -17
-14 -21 -3 -21 8 0 14 5 13 10 -1 5 4 12 12 15 9 3 11 0 6 -8 -5 -9 -4 -11 4
-6 9 6 9 11 1 21 -8 9 -6 14 5 19 13 4 14 10 5 26 -6 11 -16 17 -22 14 -7 -4
-8 -2 -4 5 5 7 12 9 19 3 17 -12 42 -8 39 6 -1 7 4 15 12 18 12 5 13 9 3 19
-7 7 -16 10 -21 7 -5 -3 -6 0 -2 7 4 6 11 9 16 6 5 -3 13 3 19 12 6 10 11 13
11 7 0 -5 -5 -15 -12 -22 -9 -9 -9 -12 0 -12 7 0 12 5 12 11 0 5 4 8 9 5 4 -3
6 7 4 22 -3 18 -2 23 4 14 7 -9 17 -4 40 21 27 30 29 35 14 46 -14 11 -14 11
1 7 12 -4 24 3 34 19 9 14 21 22 27 18 6 -3 7 -1 3 6 -4 6 -12 9 -17 6 -14 -9
-11 5 5 20 7 8 17 11 20 7 4 -3 4 2 0 13 -7 18 -6 19 12 5 19 -14 19 -14 0 8
-17 20 -15 27 8 23 5 -1 6 6 2 15 -5 14 -4 15 8 5 11 -9 16 -9 22 0 4 7 3 9
-3 6 -6 -4 -13 2 -16 12 -3 14 -1 18 10 14 8 -3 13 0 11 8 -2 9 4 13 16 11 17
-3 18 -2 7 12 -16 19 -1 21 19 4 8 -7 6 -2 -5 11 -15 18 -16 23 -5 19 11 -4
16 1 17 13 1 10 23 41 50 68 26 27 77 82 113 122 36 40 73 79 82 87 9 9 15 19
12 24 -3 4 2 8 11 8 9 0 13 5 10 10 -3 6 -2 10 2 10 5 0 18 7 29 16 10 8 12
12 4 8 -8 -3 -5 4 7 17 13 13 43 46 68 72 28 31 49 46 57 41 10 -5 10 -4 1 6
-10 11 -8 20 12 46 13 17 21 35 17 38 -3 4 2 4 12 0 15 -6 17 -4 11 6 -5 9 -4
11 4 6 7 -5 9 -17 5 -29 -3 -12 -3 -19 1 -15 8 8 16 48 17 83 0 11 2 14 5 8 7
-18 30 -16 37 3 6 15 4 15 -11 3 -16 -12 -17 -12 -6 2 7 9 9 19 5 24 -4 4 3 2
15 -4 21 -11 22 -10 13 13 -8 21 -7 24 7 19 10 -4 14 -2 10 4 -4 6 0 16 8 23
8 7 13 16 10 20 -2 4 4 15 15 25 11 10 17 22 14 26 -3 5 6 5 20 -1 16 -6 27
-6 31 1 4 5 3 9 -2 8 -19 -3 -33 2 -33 12 0 5 5 7 10 4 6 -3 10 2 10 13 0 26
11 34 29 20 13 -10 14 -10 4 2 -16 18 -17 34 -1 24 7 -4 8 -3 4 4 -4 7 -9 21
-11 33 -3 15 0 19 10 15 8 -3 17 -2 19 3 3 4 -1 8 -9 9 -8 1 -22 3 -30 4 -8 1
-12 5 -9 9 2 4 0 10 -6 14 -5 3 -10 14 -9 23 0 14 2 15 7 2 4 -8 18 -16 32
-17 14 -1 17 1 8 3 -10 3 -15 11 -11 20 3 7 10 11 17 7 6 -3 7 -2 3 2 -15 17
-36 14 -29 -3 5 -14 3 -15 -10 -4 -8 7 -24 10 -34 6 -12 -3 -10 0 5 9 17 10
20 16 10 19 -8 3 -21 -1 -30 -8 -13 -12 -16 -12 -16 1 0 8 5 11 11 8 6 -4 5 0
-1 9 -7 8 -9 19 -5 23 4 5 0 4 -8 -1 -18 -10 -39 -15 -63 -15 -9 0 -15 -5 -11
-10 3 -6 -7 -4 -24 5 -16 8 -33 12 -37 8 -5 -4 -4 -1 0 7 6 11 4 13 -10 7 -15
-5 -16 -4 -6 8 10 12 8 13 -11 8 -21 -5 -22 -4 -8 13 14 17 14 18 -9 6 -15 -8
-21 -9 -17 -2 4 6 -4 15 -19 21 -14 5 -30 21 -37 35 -6 14 -15 25 -20 25 -4 0
-8 9 -8 19 0 10 -7 21 -15 25 -8 3 -12 12 -9 21 3 8 1 15 -5 15 -6 0 -11 13
-11 29 0 17 -5 33 -10 36 -6 4 -8 11 -4 16 3 6 -2 20 -13 31 -12 14 -13 18 -3
13 12 -7 13 -6 4 6 -17 21 -24 75 -13 86 8 8 7 13 -2 18 -8 6 -10 4 -4 -5 5
-9 4 -11 -4 -6 -16 10 -2 29 16 21 13 -4 14 -3 3 10 -7 8 -17 12 -23 8 -6 -4
-7 -1 -1 8 5 8 9 18 9 23 0 5 7 11 15 13 9 3 11 1 5 -4 -5 -4 -11 -13 -12 -20
-3 -15 25 -25 33 -11 4 7 3 8 -4 4 -7 -4 -12 -1 -12 8 0 9 6 16 13 17 6 0 2 5
-10 11 -24 12 -29 23 -14 33 6 3 14 -2 19 -12 8 -13 9 -9 8 18 -2 19 0 38 3
44 11 20 10 70 -2 84 -10 12 -9 13 2 6 11 -6 13 -4 8 9 -5 11 -3 15 5 10 7 -5
9 -2 5 9 -4 11 -2 14 7 11 12 -5 21 11 31 54 2 8 -2 11 -10 8 -8 -3 -17 0 -21
6 -4 6 -3 8 4 4 6 -3 19 2 29 12 10 11 26 18 36 17 9 -2 15 1 11 6 -3 5 -10 7
-15 4 -5 -4 -9 -1 -9 4 0 10 14 15 33 12 5 -1 6 3 2 8 -3 6 -13 7 -23 4 -14
-5 -14 -3 2 9 12 9 16 20 11 28 -5 9 -4 11 3 6 7 -4 22 0 34 9 23 16 23 16 -7
10 -29 -5 -30 -5 -5 6 14 7 29 11 33 10 5 -1 6 3 3 8 -4 5 2 15 11 21 15 10
15 11 1 6 -9 -2 -19 1 -21 8 -4 9 3 12 19 10 13 -1 22 2 18 7 -3 5 -10 7 -15
4 -5 -4 -9 -4 -9 -1 0 3 17 15 38 26 33 18 34 19 10 16 -15 -3 -30 0 -34 5 -3
5 -2 9 3 8 28 -5 40 3 38 25 -3 19 1 23 19 19 15 -3 17 -2 7 5 -9 7 -10 12 -2
16 6 4 9 11 7 15 -3 4 1 8 9 8 11 0 12 -4 4 -14 -7 -8 -8 -13 -1 -13 16 0 23
30 8 36 -12 4 -11 9 5 25 11 11 17 24 14 30 -4 5 -1 8 7 7 7 -2 12 5 12 14 -1
10 3 15 9 11 6 -4 8 0 5 9 -4 8 0 15 8 15 7 0 10 -5 7 -10 -4 -6 -1 -7 6 -3 7
5 10 15 7 23 -3 8 -2 12 3 9 5 -3 11 4 14 15 6 24 -17 54 -33 44 -6 -4 -18 -1
-27 7 -12 9 -15 9 -9 1z m-150 -382 c3 -5 -1 -11 -9 -14 -9 -4 -12 -1 -8 9 6
16 10 17 17 5z m-116 -218 c-12 -15 -22 -18 -14 -4 4 5 0 11 -6 14 -7 3 -3 4
9 4 17 -1 19 -4 11 -14z m-42 -123 c0 -16 -4 -30 -8 -30 -4 0 -6 10 -4 23 3
12 5 25 5 30 1 4 3 7 5 7 2 0 3 -13 2 -30z m-8 -65 c-3 -3 -9 2 -12 12 -6 14
-5 15 5 6 7 -7 10 -15 7 -18z m324 -594 c-4 -10 -7 -11 -10 -3 -2 7 -9 9 -14
6 -6 -4 -8 -3 -5 3 10 16 36 11 29 -6z m-4592 -86 c0 -5 -5 -3 -10 5 -5 8 -10
20 -10 25 0 6 5 3 10 -5 5 -8 10 -19 10 -25z m-94 -880 c-1 -8 -5 -17 -8 -21
-5 -4 -4 16 1 34 3 9 9 -1 7 -13z m48 -33 c3 -5 -1 -9 -9 -9 -8 0 -12 4 -9 9
3 4 7 8 9 8 2 0 6 -4 9 -8z m60 -167 c-4 -8 -11 -15 -16 -15 -6 0 -5 6 2 15 7
8 14 15 16 15 2 0 1 -7 -2 -15z m3838 -31 c-9 -16 -10 -14 -9 8 1 15 6 23 11
18 4 -4 4 -16 -2 -26z m-25 -30 c-3 -3 -12 -4 -19 -1 -8 3 -5 6 6 6 11 1 17
-2 13 -5z m3 -34 c-13 -24 -14 -24 -31 -3 -8 9 -9 14 -4 11 6 -4 17 -3 25 3
21 13 22 11 10 -11z m-40 -59 c-14 -27 -23 -31 -40 -19 -12 8 -11 9 4 4 14 -5
17 -2 12 9 -3 9 -2 13 4 10 6 -3 10 -1 10 4 0 6 5 11 10 11 7 0 7 -6 0 -19z
m-100 -116 c-5 -7 -7 -15 -3 -19 4 -4 -1 -4 -12 0 -11 5 -14 9 -7 12 7 2 10 7
8 11 -3 4 1 8 9 8 10 0 12 -4 5 -12z m-3599 -78 c-10 -9 -11 -8 -5 6 3 10 9
15 12 12 3 -3 0 -11 -7 -18z m9 -27 c0 -5 -2 -10 -4 -10 -3 0 -8 5 -11 10 -3
6 -1 10 4 10 6 0 11 -4 11 -10z m20 -50 c0 -5 -2 -10 -4 -10 -3 0 -8 5 -11 10
-3 6 -1 10 4 10 6 0 11 -4 11 -10z m3424 -44 c-7 -19 -20 -21 -30 -4 -4 7 -3
8 5 4 6 -4 14 0 17 9 4 9 8 14 10 12 3 -2 2 -12 -2 -21z m-3289 -127 c-4 -5 0
-18 9 -28 15 -16 15 -19 2 -24 -10 -4 -13 -1 -10 7 3 8 1 17 -5 21 -14 8 -14
35 0 35 5 0 7 -5 4 -11z m118 -204 c-3 -9 -8 -14 -10 -11 -3 3 -2 9 2 15 9 16
15 13 8 -4z m24 -69 c0 -8 -8 -11 -21 -8 -19 5 -19 6 0 13 10 4 19 8 20 8 0 1
1 -5 1 -13z m113 -200 c0 -2 -8 -10 -17 -17 -16 -13 -17 -12 -4 4 13 16 21 21
21 13z m35 -65 c7 -12 -12 -24 -25 -16 -11 7 -4 25 10 25 5 0 11 -4 15 -9z
m31 -37 c1 -9 0 -13 -4 -10 -3 4 -7 14 -8 22 -1 9 0 13 4 10 3 -4 7 -14 8 -22z
m2234 -68 c0 -3 -4 -8 -10 -11 -5 -3 -10 -1 -10 4 0 6 5 11 10 11 6 0 10 -2
10 -4z m-32 -43 c-6 -8 -13 -11 -17 -8 -3 3 1 10 9 15 11 7 12 10 2 10 -7 0
-10 5 -6 11 4 8 9 7 15 -2 4 -8 3 -19 -3 -26z m-2083 -23 c3 -5 1 -10 -4 -10
-6 0 -11 5 -11 10 0 6 2 10 4 10 3 0 8 -4 11 -10z m1995 -53 c0 -2 -10 -12
-22 -23 -12 -10 -18 -14 -15 -7 4 6 4 13 0 16 -5 2 -2 2 5 1 6 -2 12 1 12 6 0
6 5 10 10 10 6 0 10 -2 10 -3z m-1890 -77 c0 -5 -2 -10 -4 -10 -3 0 -8 5 -11
10 -3 6 -1 10 4 10 6 0 11 -4 11 -10z m1785 -19 c3 -5 2 -12 -3 -15 -5 -3 -9
1 -9 9 0 17 3 19 12 6z m-1656 -105 c11 -14 6 -15 -27 -7 -4 1 8 21 12 21 2 0
9 -6 15 -14z m1536 -6 c3 -6 -1 -7 -9 -4 -18 7 -21 14 -7 14 6 0 13 -4 16 -10z
m-94 -113 c-10 -9 -11 -8 -5 6 3 10 9 15 12 12 3 -3 0 -11 -7 -18z m-1248 -61
c-5 -19 -10 -20 -25 -4 -17 17 -17 18 5 14 12 -1 21 -6 20 -10z m1197 -36 c0
-5 -5 -10 -11 -10 -5 0 -7 5 -4 10 3 6 8 10 11 10 2 0 4 -4 4 -10z m-5 -30 c3
-5 1 -10 -4 -10 -6 0 -11 5 -11 10 0 6 2 10 4 10 3 0 8 -4 11 -10z m-1015 -70
c0 -5 -2 -10 -4 -10 -3 0 -8 5 -11 10 -3 6 -1 10 4 10 6 0 11 -4 11 -10z m140
-80 c0 -5 -5 -10 -11 -10 -5 0 -7 5 -4 10 3 6 8 10 11 10 2 0 4 -4 4 -10z
m729 -46 c-12 -15 -42 -7 -32 9 5 8 8 7 11 -1 2 -7 8 -9 13 -6 6 3 5 12 -3 22
-12 15 -11 16 5 3 13 -10 14 -17 6 -27z m-32 -20 c-3 -3 -12 -4 -19 -1 -8 3
-5 6 6 6 11 1 17 -2 13 -5z m-576 -47 c-10 -9 -11 -8 -5 6 3 10 9 15 12 12 3
-3 0 -11 -7 -18z m542 6 c-6 -16 -5 -17 13 -3 18 14 18 14 1 -6 -9 -11 -14
-24 -10 -28 4 -4 -1 -4 -12 0 -11 5 -14 9 -7 12 7 2 10 8 6 13 -3 5 -2 14 1
19 10 16 15 11 8 -7z m-8 -113 c3 -5 1 -10 -4 -10 -6 0 -11 5 -11 10 0 6 2 10
4 10 3 0 8 -4 11 -10z m-319 -35 c0 -19 -3 -22 -13 -13 -10 8 -10 14 -2 24 15
18 15 18 15 -11z m339 -4 c3 -5 2 -12 -3 -15 -5 -3 -9 1 -9 9 0 17 3 19 12 6z
m-201 -60 c-8 -8 -43 -8 -38 0 2 4 13 7 24 6 10 -1 17 -3 14 -6z m227 -8 c12
-16 12 -17 -2 -6 -9 7 -20 9 -24 5 -5 -4 -5 -1 -1 6 9 16 11 15 27 -5z m-129
-25 c-7 -7 -12 -8 -12 -2 0 14 12 26 19 19 2 -3 -1 -11 -7 -17z m138 -2 c0 -3
-4 -8 -10 -11 -5 -3 -10 -1 -10 4 0 6 5 11 10 11 6 0 10 -2 10 -4z"/>
<path d="M5097 5021 c-19 -28 -23 -39 -12 -37 9 1 16 6 16 12 2 19 20 44 29
39 6 -3 7 1 4 9 -3 9 -7 16 -8 16 0 0 -13 -18 -29 -39z"/>
<path d="M4926 4711 c-14 -15 -15 -21 -4 -27 7 -4 10 -3 5 1 -4 5 0 17 10 27
9 10 14 18 11 18 -3 0 -13 -9 -22 -19z"/>
<path d="M4810 4511 c-7 -14 -7 -22 2 -27 7 -4 8 -3 4 4 -4 7 -2 12 4 12 6 0
8 5 4 12 -5 8 -2 9 10 5 10 -4 15 -3 11 3 -10 16 -23 12 -35 -9z"/>
<path d="M1026 4044 c-5 -14 -4 -15 9 -4 17 14 19 20 6 20 -5 0 -12 -7 -15
-16z"/>
<path d="M886 3992 c-3 -5 1 -9 9 -9 8 0 15 4 15 9 0 4 -4 8 -9 8 -6 0 -12 -4
-15 -8z"/>
<path d="M572 3875 c4 -4 0 -13 -9 -20 -11 -8 -12 -14 -5 -19 6 -3 16 2 22 13
7 15 7 22 -2 27 -7 4 -10 4 -6 -1z"/>
<path d="M4990 3829 c0 -13 33 -20 44 -9 8 8 6 9 -8 4 -12 -5 -17 -4 -13 3 3
5 0 10 -8 10 -8 0 -15 -4 -15 -8z"/>
<path d="M5053 3825 c0 -8 4 -12 9 -9 5 3 6 10 3 15 -9 13 -12 11 -12 -6z"/>
<path d="M5187 3719 c7 -7 15 -10 18 -7 3 3 -2 9 -12 12 -14 6 -15 5 -6 -5z"/>
<path d="M5129 3520 c-13 -10 -20 -19 -15 -20 5 0 1 -9 -8 -19 -13 -14 -14
-21 -5 -27 8 -4 10 -3 5 5 -4 6 0 14 9 17 8 4 14 12 13 20 -2 7 6 20 17 28 11
9 17 16 14 16 -4 0 -17 -9 -30 -20z"/>
<path d="M463 3355 c0 -8 4 -12 9 -9 5 3 6 10 3 15 -9 13 -12 11 -12 -6z"/>
<path d="M4954 3295 c-9 -14 -15 -28 -12 -30 2 -2 12 9 22 25 21 36 13 40 -10
5z"/>
<path d="M466 3288 c3 -5 10 -6 15 -3 13 9 11 12 -6 12 -8 0 -12 -4 -9 -9z"/>
<path d="M480 3110 c-9 -6 -10 -10 -3 -10 6 0 15 5 18 10 8 12 4 12 -15 0z"/>
<path d="M478 2689 c6 -7 12 -17 12 -22 0 -4 -6 -5 -12 -1 -9 5 -9 2 1 -9 7
-9 16 -17 19 -17 3 0 2 3 -1 7 -4 3 -3 11 3 17 6 8 2 16 -13 25 -18 11 -20 11
-9 0z"/>
<path d="M4355 2510 c-3 -5 -1 -10 4 -10 6 0 11 5 11 10 0 6 -2 10 -4 10 -3 0
-8 -4 -11 -10z"/>
<path d="M670 2089 c0 -5 5 -7 10 -4 6 3 10 8 10 11 0 2 -4 4 -10 4 -5 0 -10
-5 -10 -11z"/>
<path d="M760 1950 c-9 -6 -10 -10 -3 -10 6 0 15 5 18 10 8 12 4 12 -15 0z"/>
<path d="M3680 1795 c0 -5 5 -17 10 -25 5 -8 10 -10 10 -5 0 6 -5 17 -10 25
-5 8 -10 11 -10 5z"/>
<path d="M3606 1712 c-2 -4 -1 -14 4 -22 7 -11 9 -9 7 8 -1 24 -3 26 -11 14z"/>
<path d="M891 1674 c0 -11 3 -14 6 -6 3 7 2 16 -1 19 -3 4 -6 -2 -5 -13z"/>
<path d="M961 1561 c-8 -5 -9 -11 -3 -15 5 -3 12 1 16 9 6 17 6 18 -13 6z"/>
<path d="M1550 930 c0 -5 5 -10 11 -10 5 0 7 5 4 10 -3 6 -8 10 -11 10 -2 0
-4 -4 -4 -10z"/>
<path d="M2866 891 c-4 -5 3 -7 14 -4 23 6 26 13 6 13 -8 0 -17 -4 -20 -9z"/>
<path d="M2870 860 c0 -5 5 -10 11 -10 5 0 7 5 4 10 -3 6 -8 10 -11 10 -2 0
-4 -4 -4 -10z"/>
<path d="M1630 829 c0 -5 5 -7 10 -4 6 3 10 8 10 11 0 2 -4 4 -10 4 -5 0 -10
-5 -10 -11z"/>
<path d="M2790 749 c0 -5 5 -7 10 -4 6 3 10 8 10 11 0 2 -4 4 -10 4 -5 0 -10
-5 -10 -11z"/>
<path d="M1887 670 c3 -11 9 -20 15 -20 5 0 4 9 -2 20 -6 11 -12 20 -14 20 -2
0 -2 -9 1 -20z"/>
<path d="M1896 628 c3 -5 10 -6 15 -3 13 9 11 12 -6 12 -8 0 -12 -4 -9 -9z"/>
<path d="M1937 623 c-4 -3 -7 -11 -7 -17 0 -6 5 -5 12 2 6 6 9 14 7 17 -3 3
-9 2 -12 -2z"/>
<path d="M1984 602 c3 -5 0 -13 -6 -15 -9 -4 -10 -6 -1 -6 17 -1 25 16 12 25
-7 4 -9 3 -5 -4z"/>
<path d="M2615 470 c3 -5 8 -10 11 -10 2 0 4 5 4 10 0 6 -5 10 -11 10 -5 0 -7
-4 -4 -10z"/>
<path d="M2636 452 c-3 -5 1 -9 9 -9 8 0 12 4 9 9 -3 4 -7 8 -9 8 -2 0 -6 -4
-9 -8z"/>
<path d="M2429 313 c-13 -16 -12 -17 4 -4 9 7 17 15 17 17 0 8 -8 3 -21 -13z"/>
<path d="M2481 304 c0 -11 3 -14 6 -6 3 7 2 16 -1 19 -3 4 -6 -2 -5 -13z"/>
</g>
</svg>
